<?xml version="1.0" encoding="UTF-8"?>
<svg width="250px" height="123px" viewBox="0 0 250 123" version="1.1" xmlns="http://www.w3.org/2000/svg" xmlns:xlink="http://www.w3.org/1999/xlink">
    <!-- Generator: Sketch 63.1 (92452) - https://sketch.com -->
    <title>客户画像不清晰</title>
    <desc>Created with Sketch.</desc>
    <defs>
        <linearGradient x1="50%" y1="0%" x2="50%" y2="100%" id="linearGradient-1">
            <stop stop-color="#C1DBFE" offset="0%"></stop>
            <stop stop-color="#FFFFFF" offset="100%"></stop>
        </linearGradient>
        <linearGradient x1="50%" y1="0%" x2="50%" y2="100%" id="linearGradient-2">
            <stop stop-color="#89B1F7" offset="0%"></stop>
            <stop stop-color="#9BB9FC" offset="100%"></stop>
        </linearGradient>
    </defs>
    <g id="2.0" stroke="none" stroke-width="1" fill="none" fill-rule="evenodd">
        <g id="空页面" transform="translate(-427.000000, -1024.000000)">
            <g id="客户画像不清晰" transform="translate(427.000000, 1024.000000)">
                <path d="M249.283495,123 C219.862798,86.4937779 172.799938,65 122.264363,65 C73.2903413,65 29.4394504,86.9347296 1.59161573e-12,121.515879 C1.59161573e-12,121.515879 249.283495,123 249.283495,123 Z" id="椭圆形" fill="url(#linearGradient-1)"></path>
                <g id="3.通用组件/彩色版/盆栽03备份-4" transform="translate(58.000000, 72.000000)">
                    <g id="分组">
                        <g transform="translate(2.506667, 0.000000)" fill="#BAE637" id="Fill-1">
                            <path d="M1.99499844,7.73242869 L0.000801038961,7.73242869 L0.000801038961,0.98441511 C0.000801038961,0.447303056 0.444878961,0.0118803056 0.992686753,0.0118803056 L1.00309714,0.0118803056 C1.55090494,0.0118803056 1.99499844,0.447303056 1.99499844,0.98441511 L1.99499844,7.73242869 Z"></path>
                        </g>
                        <path d="M5.49333333,9.38416422 L3.49333333,9.38416422 L3.49333333,5.86049313 C3.49333333,5.33756509 3.92761458,4.91365266 4.46333333,4.91365266 L4.52334896,4.91365266 C5.05905208,4.91365266 5.49333333,5.33756509 5.49333333,5.86049313 L5.49333333,9.38416422 Z" id="Fill-3" fill="#389E0D"></path>
                        <path d="M2.8,7.72890192 L0.786666667,7.72890192 L0.786666667,3.8977997 C0.786666667,3.37191302 1.22208614,2.94558488 1.75918722,2.94558488 L1.82747944,2.94558488 C2.36458053,2.94558488 2.8,3.37191302 2.8,3.8977997 L2.8,7.72890192 Z" id="Fill-5" fill="#7CB305"></path>
                        <g transform="translate(0.000000, 7.494298)" fill="#3B68B8" id="Fill-7">
                            <path d="M5.61229848,5.83140432 L0.37483731,5.83140432 C0.167817787,5.83140432 0,5.66737703 0,5.46503346 L0,0.376478112 C0,0.174134541 0.167817787,0.010107256 0.37483731,0.010107256 L5.61229848,0.010107256 C5.819318,0.010107256 5.98713579,0.174134541 5.98713579,0.376478112 L5.98713579,5.46503346 C5.98713579,5.66737703 5.819318,5.83140432 5.61229848,5.83140432"></path>
                        </g>
                    </g>
                </g>
                <g id="3.通用组件/彩色版/盆栽03备份-5" transform="translate(168.000000, 68.000000)">
                    <g id="分组">
                        <g transform="translate(5.091667, 0.000000)" fill="#BAE637" id="Fill-1">
                            <path d="M4.05234058,14.7082036 L0.00162711039,14.7082036 L0.00162711039,1.87250066 C0.00162711039,0.850835444 0.90366039,0.0225980685 2.01639497,0.0225980685 L2.03754107,0.0225980685 C3.15027565,0.0225980685 4.05234058,0.850835444 4.05234058,1.87250066 L4.05234058,14.7082036 Z"></path>
                        </g>
                        <path d="M11.1583333,17.8500447 L7.09583333,17.8500447 L7.09583333,11.14751 C7.09583333,10.1528248 7.97796712,9.34648173 9.06614583,9.34648173 L9.18805257,9.34648173 C10.2761995,9.34648173 11.1583333,10.1528248 11.1583333,11.14751 L11.1583333,17.8500447 Z" id="Fill-3" fill="#389E0D"></path>
                        <path d="M5.6875,14.7014951 L1.59791667,14.7014951 L1.59791667,7.41418172 C1.59791667,6.41386878 2.48236247,5.60293069 3.57334905,5.60293069 L3.71206762,5.60293069 C4.8030542,5.60293069 5.6875,6.41386878 5.6875,7.41418172 L5.6875,14.7014951 Z" id="Fill-5" fill="#7CB305"></path>
                        <g transform="translate(0.000000, 14.255244)" fill="#3B68B8" id="Fill-7">
                            <path d="M11.3999813,11.0921788 L0.761388286,11.0921788 C0.340879881,11.0921788 0,10.7801751 0,10.3952882 L0,0.716116103 C0,0.331229214 0.340879881,0.0192254703 0.761388286,0.0192254703 L11.3999813,0.0192254703 C11.8204897,0.0192254703 12.1613696,0.331229214 12.1613696,0.716116103 L12.1613696,10.3952882 C12.1613696,10.7801751 11.8204897,11.0921788 11.3999813,11.0921788"></path>
                        </g>
                    </g>
                </g>
                <g id="3.通用组件/彩色版/盆栽03备份-6" transform="translate(40.000000, 88.000000)">
                    <g id="分组" transform="translate(0.796296, 0.000000)">
                        <g transform="translate(4.308333, 0.000000)" fill="#BAE637" id="Fill-1">
                            <path d="M3.42890357,11.9844622 L0.00137678571,11.9844622 L0.00137678571,1.52574128 C0.00137678571,0.693273325 0.764635714,0.018413241 1.70618036,0.018413241 L1.72407321,0.018413241 C2.66561786,0.018413241 3.42890357,0.693273325 3.42890357,1.52574128 L3.42890357,11.9844622 Z"></path>
                        </g>
                        <path d="M9.44166667,14.5444808 L6.00416667,14.5444808 L6.00416667,9.08315627 C6.00416667,8.27267207 6.75058757,7.61565178 7.67135417,7.61565178 L7.77450602,7.61565178 C8.69524577,7.61565178 9.44166667,8.27267207 9.44166667,9.08315627 L9.44166667,14.5444808 Z" id="Fill-3" fill="#389E0D"></path>
                        <path d="M4.8125,11.978996 L1.35208333,11.978996 L1.35208333,6.0411851 C1.35208333,5.22611531 2.10046055,4.56535093 3.02360304,4.56535093 L3.14098029,4.56535093 C4.06412278,4.56535093 4.8125,5.22611531 4.8125,6.0411851 L4.8125,11.978996 Z" id="Fill-5" fill="#7CB305"></path>
                        <g transform="translate(0.000000, 11.615384)" fill="#3B68B8" id="Fill-7">
                            <path d="M9.64613802,9.03807163 L0.644251627,9.03807163 C0.288436822,9.03807163 0,8.78384635 0,8.47023481 L0,0.58350201 C0,0.269890471 0.288436822,0.0156651981 0.644251627,0.0156651981 L9.64613802,0.0156651981 C10.0019528,0.0156651981 10.2903896,0.269890471 10.2903896,0.58350201 L10.2903896,8.47023481 C10.2903896,8.78384635 10.0019528,9.03807163 9.64613802,9.03807163"></path>
                        </g>
                    </g>
                </g>
                <rect id="矩形" fill="#B3C6F5" x="90" y="0" width="65" height="79" rx="8"></rect>
                <rect id="矩形备份-4" fill="url(#linearGradient-2)" x="70" y="9" width="77" height="86" rx="8"></rect>
                <rect id="矩形" fill="#FFFFFF" x="98" y="40" width="25" height="5"></rect>
                <rect id="矩形备份-8" fill="#FFFFFF" x="98" y="62" width="25" height="5"></rect>
                <rect id="矩形备份-7" fill="#FFFFFF" x="98" y="47" width="42" height="5"></rect>
                <rect id="矩形备份-9" fill="#FFFFFF" x="98" y="70" width="42" height="5"></rect>
                <circle id="椭圆形" fill="#5780DD" cx="84.5" cy="44.5" r="7.5"></circle>
                <circle id="椭圆形备份-12" fill="#FFFFFF" cx="84.5" cy="67.5" r="7.5"></circle>
                <g id="客户" transform="translate(79.000000, 40.000000)" fill="#FFFFFF" fill-rule="nonzero">
                    <path d="M2.67912088,2.26285689 L2.67912088,2.26285723 C2.67912088,3.5126017 3.71821085,4.52571446 5,4.52571446 C6.28178915,4.52571446 7.32087912,3.5126017 7.32087912,2.26285723 L7.32087912,2.26285723 C7.32087912,1.01311276 6.28178915,0 5,0 C3.71821085,0 2.67912088,1.01311276 2.67912088,2.26285723 L2.67912088,2.26285689 Z M5,5.65714273 C3.11761332,5.65714273 1.44468063,6.53118741 0.384615385,7.8856975 L0.384615385,9 L9.61538462,9 L9.61538462,7.8856975 C8.55531937,6.53117736 6.88238668,5.65714273 5,5.65714273 L5,5.65714273 Z" id="形状"></path>
                </g>
                <g id="客户备份" transform="translate(79.000000, 62.000000)" fill="#9AB9FC" fill-rule="nonzero">
                    <path d="M2.67912088,2.26285689 L2.67912088,2.26285723 C2.67912088,3.5126017 3.71821085,4.52571446 5,4.52571446 C6.28178915,4.52571446 7.32087912,3.5126017 7.32087912,2.26285723 L7.32087912,2.26285723 C7.32087912,1.01311276 6.28178915,0 5,0 C3.71821085,0 2.67912088,1.01311276 2.67912088,2.26285723 L2.67912088,2.26285689 Z M5,5.65714273 C3.11761332,5.65714273 1.44468063,6.53118741 0.384615385,7.8856975 L0.384615385,9 L9.61538462,9 L9.61538462,7.8856975 C8.55531937,6.53117736 6.88238668,5.65714273 5,5.65714273 L5,5.65714273 Z" id="形状"></path>
                </g>
                <path d="M78,9 L139,9 C143.418278,9 147,12.581722 147,17 L147,23 L147,23 L70,23 L70,17 C70,12.581722 73.581722,9 78,9 Z" id="矩形备份-5" fill="#7AA1F8"></path>
                <circle id="椭圆形" fill="#FFFFFF" cx="77.5" cy="16.5" r="2.5"></circle>
                <circle id="椭圆形备份-10" fill="#FFFFFF" cx="84.5" cy="16.5" r="2.5"></circle>
                <circle id="椭圆形备份-11" fill="#FFFFFF" cx="91.5" cy="16.5" r="2.5"></circle>
            </g>
        </g>
    </g>
</svg>