<?xml version="1.0" standalone="no"?><!DOCTYPE svg PUBLIC "-//W3C//DTD SVG 1.1//EN" "http://www.w3.org/Graphics/SVG/1.1/DTD/svg11.dtd"><svg t="1608024583319" class="icon" viewBox="0 0 1024 1024" version="1.1" xmlns="http://www.w3.org/2000/svg" p-id="6687" xmlns:xlink="http://www.w3.org/1999/xlink" width="200" height="200"><defs><style type="text/css"></style></defs><path d="M148.010667 605.290667c50.069333 0 90.666667-40.874667 90.666666-91.285334 0-49.962667-39.893333-90.538667-89.344-91.264V277.333333a64 64 0 0 1 64-64h597.333334a64 64 0 0 1 64 64l-0.021334 145.450667-3.050666 0.064c-48.021333 2.304-86.272 42.24-86.272 91.157333 0 49.962667 39.872 90.56 89.322666 91.285334V746.666667a64 64 0 0 1-64 64H213.333333a64 64 0 0 1-64-64v-141.397334l-1.322666 0.021334zM384 597.333333v85.333334h68.010667v-85.333334H384z m0-128v85.333334h68.010667v-85.333334H384z m0-128v85.333334h68.010667v-85.333334H384z" p-id="6688" fill="#1296db"></path></svg>