<?xml version="1.0" standalone="no"?><!DOCTYPE svg PUBLIC "-//W3C//DTD SVG 1.1//EN" "http://www.w3.org/Graphics/SVG/1.1/DTD/svg11.dtd"><svg t="1651674881360" class="icon" viewBox="0 0 1024 1024" version="1.1" xmlns="http://www.w3.org/2000/svg" p-id="2947" xmlns:xlink="http://www.w3.org/1999/xlink" width="200" height="200"><defs><style type="text/css">@font-face { font-family: feedback-iconfont; src: url("//at.alicdn.com/t/font_1031158_u69w8yhxdu.woff2?t=1630033759944") format("woff2"), url("//at.alicdn.com/t/font_1031158_u69w8yhxdu.woff?t=1630033759944") format("woff"), url("//at.alicdn.com/t/font_1031158_u69w8yhxdu.ttf?t=1630033759944") format("truetype"); }
</style></defs><path d="M314.625212 113.618711c0-13.480013 11.471262-24.403806 24.728194-24.403806 13.658068 0 24.727171 10.701736 24.727171 24.403806L364.080577 263.780709c0 13.468756-11.471262 24.39255-24.727171 24.39255-13.659091 0-24.728194-10.69048-24.728194-24.39255L314.625212 113.618711 314.625212 113.618711zM660.857794 113.618711c0-13.480013 11.471262-24.403806 24.728194-24.403806 13.678534 0 24.74866 10.701736 24.74866 24.403806L710.334649 263.780709c0 13.468756-11.470239 24.39255-24.74866 24.39255-13.659091 0-24.728194-10.69048-24.728194-24.39255L660.857794 113.618711 660.857794 113.618711zM413.559479 138.948609l197.84295 0 0 49.745984L413.559479 188.694593 413.559479 138.948609 413.559479 138.948609zM759.790014 138.948609l0 49.745984L908.1776 188.694593 908.1776 337.919243 116.783285 337.919243 116.783285 188.694593l148.387585 0 0-49.745984L116.783285 138.948609c-24.727171 0-49.455365 24.88476-49.455365 49.745984 0 0-2.165316 663.796218 0 696.355775 2.14178 32.550347 24.728194 49.734728 49.455365 49.734728L908.1776 934.785096c2.142803 0 49.455365 0 49.455365-49.734728L957.632965 188.694593c0-24.861224-24.728194-49.745984-49.455365-49.745984C833.995063 138.948609 759.790014 138.948609 759.790014 138.948609L759.790014 138.948609zM116.783285 387.652947 908.1776 387.652947 908.1776 885.050368 116.783285 885.050368 116.783285 387.652947 116.783285 387.652947z" p-id="2948" fill="#707070"></path></svg>