<?xml version="1.0" standalone="no"?><!DOCTYPE svg PUBLIC "-//W3C//DTD SVG 1.1//EN" "http://www.w3.org/Graphics/SVG/1.1/DTD/svg11.dtd"><svg t="1652510546944" class="icon" viewBox="0 0 1024 1024" version="1.1" xmlns="http://www.w3.org/2000/svg" p-id="2007" xmlns:xlink="http://www.w3.org/1999/xlink" width="200" height="200"><defs><style type="text/css">@font-face { font-family: feedback-iconfont; src: url("//at.alicdn.com/t/font_1031158_u69w8yhxdu.woff2?t=1630033759944") format("woff2"), url("//at.alicdn.com/t/font_1031158_u69w8yhxdu.woff?t=1630033759944") format("woff"), url("//at.alicdn.com/t/font_1031158_u69w8yhxdu.ttf?t=1630033759944") format("truetype"); }
</style></defs><path d="M516.52608 47.88736c-260.7104 0-472.062976 211.347456-472.062976 472.060928 0 260.71552 211.352576 472.068096 472.062976 472.068096 260.718592 0 472.066048-211.352576 472.066048-472.068096C988.592128 259.234816 777.244672 47.88736 516.52608 47.88736zM824.092672 827.561984c-3.616768 3.616768-8.359936 5.425152-13.10208 5.425152s-9.484288-1.808384-13.10208-5.425152L510.050304 539.723776c-1.306624-1.265664-14.568448-14.810112-14.568448-38.682624L495.481856 117.57056c0-10.228736 8.29952-18.527232 18.527232-18.527232s18.527232 8.29952 18.527232 18.527232l0 383.470592c0 8.199168 3.777536 12.53888 3.938304 12.720128l287.618048 287.597568C831.327232 808.592384 831.327232 820.328448 824.092672 827.561984z" p-id="2008" fill="#1296db"></path></svg>