<?xml version="1.0" standalone="no"?><!DOCTYPE svg PUBLIC "-//W3C//DTD SVG 1.1//EN" "http://www.w3.org/Graphics/SVG/1.1/DTD/svg11.dtd"><svg t="1651676396194" class="icon" viewBox="0 0 1024 1024" version="1.1" xmlns="http://www.w3.org/2000/svg" p-id="5172" xmlns:xlink="http://www.w3.org/1999/xlink" width="200" height="200"><defs><style type="text/css">@font-face { font-family: feedback-iconfont; src: url("//at.alicdn.com/t/font_1031158_u69w8yhxdu.woff2?t=1630033759944") format("woff2"), url("//at.alicdn.com/t/font_1031158_u69w8yhxdu.woff?t=1630033759944") format("woff"), url("//at.alicdn.com/t/font_1031158_u69w8yhxdu.ttf?t=1630033759944") format("truetype"); }
</style></defs><path d="M509.115811 960.595948c-248.787226 0-450.465528-201.692628-450.465528-450.478831 0-248.787226 201.678302-450.479855 450.465528-450.479855 248.787226 0 450.465528 201.692628 450.465528 450.479855C959.58134 758.90332 757.903038 960.595948 509.115811 960.595948zM593.475128 525.33061c32.440853-22.177092 53.792137-59.735499 53.792137-102.383832 0-51.653427-31.475875-96.062869-76.207659-115.276467-0.532119-0.224104-1.047866-0.390903-1.566682-0.615007-6.891967-2.852978-14.080693-5.117554-21.533432-6.684236-0.824785-0.195451-1.606591-0.306992-2.432399-0.475837-7.662517-1.481747-15.536858-2.376117-23.617907-2.376117-0.124843 0-0.224104 0-0.348947 0-69.062935 0.11154-124.46371 56.351426-124.46371 124.561947 0 42.675962 21.337981 80.20674 53.79316 102.383832-73.439616 29.02915-124.659161 99.838869-124.659161 182.619224l34.999119 0c0-81.912591 62.336744-150.178371 141.732002-159.575392 0.853437 0 22.204721-1.704828 40.132022 0l1.705851 0c77.704756 11.102872 137.467885 77.663824 137.467885 158.709675l35.867906 0C717.267549 624.302739 666.048003 553.49302 593.475128 525.33061zM521.75569 515.934612c-2.530636 0-4.907777-0.531096-7.397481-0.727571-1.523703 0.168846-2.530636 0.224104-2.530636 0.224104-1.859347-0.167822-3.427052-0.726547-5.202489-1.006933-2.334161-0.36225-4.641717-0.782829-6.907317-1.314948-4.124947-0.979304-7.970532-2.180666-11.648294-3.607154-1.579985-0.586354-3.15997-1.146103-4.684696-1.845021-3.984754-1.790786-7.620561-3.802606-11.018961-5.956665-1.342578-0.810459-2.769067-1.538029-4.082992-2.433422-4.208858-2.964518-7.816013-6.040576-11.032264-9.089006-1.454118-1.370207-2.811022-2.824325-4.166903-4.278443-4.013407-4.307096-6.992251-8.025791-8.949836-10.851139-0.181125-0.280386-0.363274-0.531096-0.545422-0.811482-1.538029-2.293229-2.572592-3.971451-2.572592-3.971451 0.308015 0.335644 0.601704 0.559748 0.909719 0.895393-8.795317-14.290471-14.09502-30.986735-14.09502-49.079812 0-18.542308 5.495154-35.685757 14.696724-50.200332 9.480932-12.248975 67.594491-79.815837 140.082432 1.985214 0 0-21.632693-39.34817-68.992327-44.830021 2.712785-0.252757 5.341658-0.811482 8.137331-0.811482 52.072983 0 93.910856 41.809221 93.910856 93.855598C615.667569 474.124368 573.828672 515.934612 521.75569 515.934612z" p-id="5173" fill="#707070"></path></svg>